<svg xmlns="http://www.w3.org/2000/svg" width="240" height="245" viewBox="395 95 240 245" overflow="hidden">
<g>
<path d="M 484.44 296.47 C478.31,298.31 465.62,299.12 460.33,298.01 C453.55,296.58 445.34,292.18 440.58,287.42 C435.70,282.54 432.24,274.78 431.26,266.55 L 430.67 261.58 L 436.05 265.44 C445.45,272.20 457.10,275.11 466.21,272.99 C479.30,269.94 493.07,259.42 502.20,245.50 C504.72,241.65 510.72,231.07 515.53,222.00 C533.31,188.45 546.20,175.40 566.94,169.95 C578.23,166.99 586.54,167.68 597.37,172.50 C626.91,185.62 630.46,229.14 603.11,242.94 C592.52,248.29 578.74,247.61 572.96,241.46 C570.72,239.07 571.01,237.00 573.60,237.00 C576.26,237.00 582.69,233.16 585.37,229.97 C587.44,227.51 588.00,225.78 588.00,221.86 C588.00,216.32 586.90,213.63 583.22,210.17 C579.94,207.10 576.82,206.00 571.40,206.00 C558.03,206.00 548.10,216.69 532.56,247.83 C523.05,266.89 518.85,273.07 509.54,281.77 C502.15,288.67 493.49,293.74 484.44,296.47 ZM 541.45 319.66 C533.89,321.83 530.01,322.29 516.50,322.59 C499.29,322.98 493.52,322.18 480.43,317.56 C476.55,316.19 471.15,313.82 468.43,312.31 L 463.50 309.55 L 473.50 308.44 C486.08,307.05 493.09,304.99 501.42,300.24 C516.97,291.39 528.68,278.37 538.49,259.00 C547.28,241.65 553.01,233.27 555.17,234.61 C555.65,234.90 557.13,237.30 558.46,239.93 C563.81,250.48 576.23,258.01 588.29,257.99 C596.34,257.99 600.03,256.90 608.25,252.08 C611.96,249.91 615.00,248.31 615.00,248.53 C615.00,248.75 614.07,251.41 612.94,254.44 C601.38,285.32 574.03,310.27 541.45,319.66 Z" fill="rgb(100,170,173)"/>
<path d="M 425.08 302.08 C420.73,306.42 414.46,305.50 412.02,300.15 C408.43,292.25 406.93,268.87 409.04,253.66 C410.14,245.79 410.05,245.17 405.00,226.00 C399.36,204.59 402.45,185.63 414.64,166.92 C425.01,151.00 442.03,140.23 469.05,132.51 C498.47,124.10 509.52,119.22 519.11,110.40 C522.41,107.36 525.66,105.05 526.31,105.26 C528.48,105.98 530.08,117.31 530.21,133.00 C530.55,173.40 518.08,206.00 495.35,224.05 C486.62,231.00 472.77,237.97 461.69,241.01 C453.14,243.36 432.75,247.04 432.05,246.37 C431.15,245.50 432.20,236.80 433.94,230.73 C440.34,208.37 455.17,187.48 479.46,166.59 C483.84,162.82 488.34,158.57 489.46,157.14 L 491.50 154.54 L 487.50 156.95 C461.99,172.32 448.49,184.26 437.43,201.25 C426.80,217.58 422.11,232.35 421.28,252.10 C420.66,266.93 421.64,274.57 425.65,286.43 C428.78,295.65 428.68,298.48 425.08,302.08 Z" fill="rgb(115,177,98)"/>
</g>
</svg>
